<svg width="583" height="581" viewBox="0 0 583 581" fill="none" xmlns="http://www.w3.org/2000/svg" class="stats__background"><path d="M67.9518 214.442C48.9498 271.026 52.1107 332.711 76.7971 387.057C101.483 441.403 145.859 484.366 200.974 507.283C256.089 530.2 317.844 531.365 373.784 510.544C429.725 489.723 475.69 448.465 502.409 395.089" stroke="#E3F8F8" stroke-width="110.78" class="stats-svg-thick powder"/> <path d="M141.785 286.942C141.275 316.557 149.559 345.658 165.588 370.565C181.617 395.471 204.672 415.066 231.837 426.87C259.003 438.674 289.058 442.157 318.203 436.88C347.348 431.602 374.274 417.801 395.575 397.22" stroke="#FFF1D0" stroke-width="17.78" class="peach counterclockwise slow"/> <path d="M164.333 237.713C176.198 208.584 197.702 184.411 225.251 169.233C252.799 154.056 284.723 148.795 315.684 154.329" stroke="#94CC3F" stroke-width="3.8" stroke-dasharray="2.42 2.42" class="benjamin clockwise"/> <path d="M117.443 180.591C136.777 149.693 163.987 124.498 196.277 107.593C228.568 90.6884 264.776 82.6826 301.184 84.398C337.592 86.1133 372.887 97.488 403.445 117.354C434.004 137.22 458.724 164.862 475.067 197.44" stroke="#FFE49D" stroke-width="3.78128" class="summer stats-svg-thin"/></svg>