<svg xmlns="http://www.w3.org/2000/svg" fill="none" viewBox="0 0 1300 1082" focusable="false" class="concentric concentric--vinyl"><g class="concentric__container"><path fill-rule="evenodd" clip-rule="evenodd" d="M1171.7 680.789C1094.49 968.914 798.337 1139.9 510.212 1062.7 222.087 985.495 51.101 689.338 128.304 401.213 205.507 113.087 501.663-57.899 789.789 19.304 1077.91 96.507 1248.9 392.664 1171.7 680.79ZM853.277 541c0 112.266-91.01 203.277-203.277 203.277-112.266 0-203.276-91.011-203.276-203.277 0-112.267 91.01-203.277 203.276-203.277 112.267 0 203.277 91.01 203.277 203.277ZM376.995 920.217c-71.468-51.308-126.987-121.715-160.173-203.127a466.432 466.432 0 0 1-27.428-257.089l92.934 16.342a372.322 372.322 0 0 0 21.894 205.218 372.89 372.89 0 0 0 127.856 162.144l-55.083 76.512Zm726.655-492.808a466.803 466.803 0 0 0-81.98-169.913l-74.988 57.201a372.61 372.61 0 0 1 65.438 135.63 372.248 372.248 0 0 1 6.38 150.417l93.15 15.101a466.497 466.497 0 0 0-8-188.436Z" fill="#D0EFEC" class="venus"/><path d="M650 798.162c142.028 0 257.163-115.135 257.163-257.163 0-142.027-115.135-257.163-257.163-257.163-142.027 0-257.163 115.136-257.163 257.163 0 142.028 115.136 257.163 257.163 257.163Z" stroke="#F1FCFC" stroke-width="8" stroke-dasharray="15 20" class="mercury"/><g stroke="#92B8B8" class="comet"><path d="M206.927 490.216c10.701-93.628 50.701-181.468 114.277-250.948 63.576-69.48 147.468-117.039 239.673-135.872a445.372 445.372 0 0 1 273.663 31.021c85.668 38.996 156.823 104.132 203.28 186.085 46.46 81.954 65.84 176.525 55.38 270.18-10.47 93.655-50.25 181.593-113.659 251.231-63.404 69.638-147.179 117.405-239.336 136.467a445.369 445.369 0 0 1-273.739-30.343" stroke-width="2" stroke-dasharray="15 20" class="tail"/><circle cx="205.589" cy="501.226" r="10.808" stroke-width="3" class="head"/></g></g></svg>