<svg xmlns="http://www.w3.org/2000/svg" viewBox="0 0 48 48" fill="#ff00" class=""><path d="M39 24H24v15h15V24Z" fill="#2DD4BF" class="i-fill"/><path d="M42 6H6v36h36V6Z" stroke="#234652" stroke-miterlimit="10" class="i-Vector"/><g stroke="#234652" class="i-equals"><path d="M27.15 29.4h8.1" class="i-Vector 4"/><path d="M27.15 33.9h8.1" class="i-Vector 5"/></g><g stroke="#234652" class="i-division"><path d="M31.2 13.12a.496.496 0 1 1 0 .991.496.496 0 0 1 0-.991Z" class="i-Vector_2"/><path d="M31.2 19.282a.496.496 0 1 1 0 .992.496.496 0 0 1 0-.992Z" class="i-Vector_3"/><path d="M27.15 16.8h8.1" class="i-Vector 3"/></g><g stroke="#234652" class="i-plus"><path d="M17.25 26.7v8.55m0-8.55v8.55" class="i-Vector 1"/><path d="M21.525 30.975h-8.55m8.55 0h-8.55" class="i-Vector 2"/></g><g stroke="#234652" class="i-times"><path d="m20.273 13.552-6.046 6.046m6.046-6.046-6.046 6.046" class="i-Vector 1_2"/><path d="m20.273 19.598-6.046-6.046m6.046 6.046-6.046-6.046" class="i-Vector 2_2"/></g></svg>