<svg xmlns="http://www.w3.org/2000/svg" viewBox="0 0 48 49" fill="#ff00" class=""><path d="M19.368 8.633c-5.529 1.455-9.399.857-11.71-.126a2.147 2.147 0 0 0-.104.663v7.444c0 1.186.961 2.148 2.148 2.148h22.555a2.148 2.148 0 0 0 2.148-2.148V9.17c0-.138-.013-.273-.038-.404-3.93-.987-9.456-1.592-14.999-.133ZM23.665 30.651h-5.37v13.963h5.37V30.65Z" fill="#2DD4BF"/><path d="M35.926 10.87V7.648A2.148 2.148 0 0 0 33.778 5.5H11.222a2.148 2.148 0 0 0-2.148 2.148v6.444c0 1.187.962 2.149 2.148 2.149h22.556a2.148 2.148 0 0 0 2.148-2.149V10.87Zm0 0h3.222V20L22.5 24.296v4.833m0 0h-2.685v13.963h5.37V29.13H22.5Z" stroke="#234652" stroke-linejoin="round"/></svg>