<svg xmlns="http://www.w3.org/2000/svg" viewBox="0 0 48 48" fill="#ff00" class=""><path d="M10 22h13v3H10v-3ZM10 27h13v3H10v-3ZM10 32h13v3H10v-3ZM25 22h13v3H25v-3ZM25 27h13v5H25v-5ZM27 35h9l-3 2h-3.5L27 35Z" fill="#2DD4BF" class="i-fill"/><path stroke="#234652" d="M6 17.5h36" class="i-Line 9"/><path d="M31.5 37a6.5 6.5 0 1 0 0-13 6.5 6.5 0 0 0 0 13Z" stroke="#234652" stroke-linecap="round" stroke-linejoin="round" class="i-Vector"/><path d="m42 41-6-6" stroke="#234652" stroke-linejoin="round" class="i-Vector_2"/><path d="M26.5 39H6V9h36v24" stroke="#234652" stroke-linecap="square" class="i-Vector 1"/></svg>