<svg xmlns="http://www.w3.org/2000/svg" viewBox="0 0 48 48" fill="#ff00" class=""><circle cx="22.933" cy="24.672" r="12.794" fill="#2DD4BF" class="i-fill"/><path d="M23.169 4.084a20.595 20.595 0 0 1 20.15 17.57" stroke="#234652" class="i-Ellipse 594"/><path d="M40.992 34.603a20.595 20.595 0 0 1-28.575 7.773" stroke="#234652" class="i-Ellipse 597"/><path d="M4.429 33.689a20.594 20.594 0 0 1 6.682-25.865" stroke="#234652" class="i-Ellipse 598"/><path d="M21.166 6.538a2.554 2.554 0 1 1-.98-5.014 2.554 2.554 0 0 1 .98 5.014Z" stroke="#234652" class="i-Ellipse 599"/><path d="M42.81 34.515a2.555 2.555 0 1 1-.982-5.014 2.555 2.555 0 0 1 .981 5.014Z" stroke="#234652" class="i-Ellipse 600"/><path d="M5.75 38.102a2.554 2.554 0 1 1-.87-5.033 2.554 2.554 0 0 1 .87 5.033Z" stroke="#234652" class="i-Ellipse 601"/><path stroke="#234652" d="M22.886 19.526v10.223" class="i-Line 122"/><path stroke="#234652" d="M28.077 24.652H17.854" class="i-Line 123"/><path d="m6.808 7.145 4.732.477-.476 4.733" stroke="#234652" class="i-Rectangle 915"/><path d="m46.09 18.417-2.674 3.935-3.935-2.673" stroke="#234652" class="i-Rectangle 916"/><path d="m13.25 46.495-1.397-4.547 4.546-1.398" stroke="#234652" class="i-Rectangle 917"/></svg>