<svg xmlns="http://www.w3.org/2000/svg" viewBox="0 0 276 40" fill="none" class=""><g class="i-cogicon"><path d="M16.926.43S18.213.28 19.5.28s2.572.15 2.572.15l1.09 4.663c1.453.363 2.822.937 4.073 1.688l4.07-2.527s1.015.803 1.925 1.712a25.37 25.37 0 0 1 1.712 1.926l-2.528 4.069a14.961 14.961 0 0 1 1.689 4.073l4.663 1.09s.15 1.286.15 2.572-.15 2.573-.15 2.573l-4.663 1.09a14.961 14.961 0 0 1-1.688 4.072l2.527 4.07s-.803 1.015-1.712 1.925c-.91.91-1.926 1.712-1.926 1.712l-4.069-2.527a14.964 14.964 0 0 1-4.073 1.688l-1.09 4.663s-1.286.151-2.572.151-2.573-.15-2.573-.15l-1.09-4.664a14.964 14.964 0 0 1-4.072-1.688l-4.07 2.528s-1.015-.804-1.925-1.713A25.368 25.368 0 0 1 4.056 31.5l2.528-4.069a14.962 14.962 0 0 1-1.688-4.073l-4.663-1.09s-.151-1.286-.151-2.572.15-2.572.15-2.572l4.664-1.09a14.962 14.962 0 0 1 1.688-4.073L4.056 7.89S4.86 6.877 5.77 5.967c.91-.91 1.926-1.712 1.926-1.712l4.069 2.527a14.962 14.962 0 0 1 4.073-1.688L16.927.43Z" fill="#D85427" class="i-cogicon__cog"/><path d="M24.025 21.756a5.038 5.038 0 0 1-1.753 2.073 5.208 5.208 0 0 1-2.778.861 5.094 5.094 0 0 1-1.943-.377 5.272 5.272 0 0 1-2.211-1.83 5.183 5.183 0 0 1-.864-2.773c0-.7.135-1.347.378-1.939a4.947 4.947 0 0 1 1.807-2.18 5.208 5.208 0 0 1 2.779-.862c.7 0 1.348.135 1.942.377a4.952 4.952 0 0 1 2.184 1.804c.135.215.27.43.378.673l5.53-1.427c-.081-.216-.162-.404-.243-.62a10.743 10.743 0 0 0-3.857-4.684 10.544 10.544 0 0 0-5.961-1.83c-1.403.053-2.806.35-4.073.888a10.754 10.754 0 0 0-4.694 3.85 10.496 10.496 0 0 0-1.834 5.95c0 1.453.297 2.853.836 4.146a10.743 10.743 0 0 0 3.857 4.684c1.7 1.158 3.75 1.831 5.961 1.831 1.457 0 2.86-.296 4.154-.835a10.755 10.755 0 0 0 4.694-3.85 11.01 11.01 0 0 0 1.24-2.45l-5.529-1.48Z" fill="#fff" class="i-cogicon__c"/></g><g class="i-logotype"><path d="M49.15 19.829c0-6.99 5.194-12.376 12.376-12.376 4.31 0 8.121 2.155 10.193 5.497l-4.696 2.708c-1.05-1.824-3.094-2.929-5.497-2.929-4.227 0-6.934 2.818-6.934 7.072s2.707 7.072 6.934 7.072c2.403 0 4.475-1.077 5.497-2.928l4.696 2.707c-2.044 3.37-5.856 5.497-10.193 5.497-7.155.055-12.376-5.304-12.376-12.32ZM73.432 23.227c0-5.056 4.005-8.978 9.005-8.978 5 0 9.006 3.895 9.006 8.978 0 5.055-4.006 8.977-9.006 8.977s-9.005-3.895-9.005-8.977Zm12.9 0c0-2.404-1.712-4.006-3.895-4.006-2.182 0-3.895 1.602-3.895 4.006 0 2.403 1.713 4.005 3.895 4.005 2.183 0 3.895-1.575 3.895-4.005ZM131.802 21.293v10.442h-5.11v-9.696c0-2.1-1.326-3.094-2.956-3.094-1.879 0-3.149 1.077-3.149 3.508v9.282h-5.111v-16.99h5.111v1.603c.911-1.27 2.624-2.072 4.862-2.072 3.425 0 6.353 2.431 6.353 7.017ZM134.813 10.188c0-1.658 1.381-3.066 3.066-3.066 1.658 0 3.067 1.38 3.067 3.066 0 1.657-1.381 3.066-3.067 3.066-1.685 0-3.066-1.409-3.066-3.066Zm.497 4.558h5.111v16.989h-5.111v-16.99ZM150.614 19.635v6.022c0 1.465 1.271 1.603 3.509 1.465v4.613c-6.658.69-8.592-1.326-8.592-6.078v-6.022h-2.707v-4.89h2.707v-3.231l5.111-1.52v4.752h3.508v4.89h-3.536ZM155.808 23.227c0-5.056 4.005-8.978 9.005-8.978 5 0 9.006 3.895 9.006 8.978 0 5.055-4.006 8.977-9.006 8.977s-9.005-3.895-9.005-8.977Zm12.9 0c0-2.404-1.713-4.006-3.895-4.006s-3.895 1.602-3.895 4.006c0 2.403 1.713 4.005 3.895 4.005s3.895-1.575 3.895-4.005ZM188.432 13.171v4.586h8.84v5.22h-8.84v8.73h-5.442V7.95h14.447v5.221h-9.005ZM199.647 23.227c0-5.056 4.006-8.978 9.006-8.978s9.005 3.895 9.005 8.978c0 5.055-4.005 8.977-9.005 8.977-5 0-9.006-3.895-9.006-8.977Zm12.901 0c0-2.404-1.713-4.006-3.895-4.006s-3.895 1.602-3.895 4.006c0 2.403 1.713 4.005 3.895 4.005s3.895-1.575 3.895-4.005ZM230.725 14.387v5.773c-2.1-.331-5.111.497-5.111 3.868v7.68h-5.11V14.745h5.11v3.01c.691-2.264 2.984-3.37 5.111-3.37ZM258.598 21.293v10.442h-5.111v-10c0-1.713-.829-2.79-2.458-2.79-1.713 0-2.652 1.188-2.652 3.204v9.586h-5.111v-10c0-1.713-.829-2.79-2.458-2.79-1.713 0-2.652 1.188-2.652 3.204v9.586h-5.111v-16.99h5.111v1.575c.773-1.16 2.265-2.044 4.558-2.044 2.016 0 3.508.829 4.447 2.238.939-1.354 2.514-2.238 4.917-2.238 3.978 0 6.52 2.763 6.52 7.017ZM275.283 26.624c0 3.895-3.398 5.58-7.072 5.58-3.398 0-5.995-1.298-7.293-4.033l4.42-2.514c.442 1.299 1.381 2.017 2.901 2.017 1.215 0 1.823-.387 1.823-1.05 0-1.878-8.37-.884-8.37-6.768 0-3.701 3.121-5.58 6.657-5.58 2.762 0 5.193 1.216 6.63 3.647l-4.337 2.348c-.47-.884-1.16-1.492-2.265-1.492-.884 0-1.437.331-1.437.94 0 1.905 8.343.635 8.343 6.905ZM111.747 14.746v16.132c0 5.719-4.448 8.122-8.978 8.122-3.536 0-6.492-1.326-8.066-4.116l4.337-2.514c.635 1.188 1.629 2.155 3.867 2.155 2.376 0 3.84-1.216 3.84-3.646v-1.575c-1.133 1.381-2.763 2.21-4.973 2.21-4.834 0-8.37-3.95-8.37-8.619 0-4.668 3.536-8.619 8.37-8.619 2.21 0 3.84.829 4.973 2.21v-1.74h5Zm-4.945 8.149c0-2.348-1.713-3.95-4.116-3.95-2.403 0-4.116 1.602-4.116 3.95s1.713 3.95 4.116 3.95c2.403 0 4.116-1.602 4.116-3.95Z" fill="#234652" class="i-logotype_2"/></g></svg>