<svg xmlns="http://www.w3.org/2000/svg" viewBox="0 0 48 49" fill="none" class=""><path fill-rule="evenodd" clip-rule="evenodd" d="M43 49V26L13 49h30Zm-7-7v-7l-9 7h9Z" fill="#d1ed7e" class="i-fill"/><path stroke="#234652" d="M13.5 8.5h18v5h-18z" class="i-Rectangle 2"/><path stroke="#234652" d="M13.5 18.5h18v5h-18z" class="i-Rectangle 3"/><path d="M13.5 28.5h18v4.25l-3.667 2.75H13.5v-7Z" stroke="#234652" class="i-Rectangle 4"/><path d="m13.5 32 5-3.5" stroke="#234652" class="i-Line 1"/><path d="m14.5 35.5 9-7" stroke="#234652" class="i-Line 2"/><path d="m19 35.5 9-7" stroke="#234652" class="i-Line 3"/><path d="m23.5 35.5 8-6" stroke="#234652" class="i-Line 5"/><path d="M38 27.622V2H7v41h10.737" stroke="#234652" class="i-Subtract"/><path d="m28.457 41.5 7.043-5.478V41.5h-7.043Z" stroke="#234652" class="i-Polygon 2"/><path d="m14.5 45.5 26-19.5v19.5h-26Z" stroke="#234652" class="i-Polygon 4"/></svg>